<mxfile host="app.diagrams.net" modified="2022-04-13T00:03:26.561Z" agent="5.0 (Windows NT 10.0; Win64; x64) AppleWebKit/537.36 (KHTML, like Gecko) Chrome/100.0.4896.75 Safari/537.36" etag="2jvINJlvtauF3WjD962_" version="17.4.3" type="github">
  <diagram name="Page-1" id="52a04d89-c75d-2922-d76d-85b35f80e030">
    <mxGraphModel dx="1422" dy="794" grid="1" gridSize="10" guides="1" tooltips="1" connect="1" arrows="1" fold="1" page="1" pageScale="1" pageWidth="1100" pageHeight="850" background="none" math="0" shadow="0">
      <root>
        <mxCell id="0" />
        <mxCell id="1" parent="0" />
        <mxCell id="zCF4mZbvVpgICroJBNLq-11" value="NoSQL database" style="swimlane;dashed=1;fillColor=#FF8000;strokeColor=#C73500;fontColor=#FFFFFF;swimlaneFillColor=#FFE6CC;" parent="1" vertex="1">
          <mxGeometry x="120" y="140" width="180" height="460" as="geometry" />
        </mxCell>
        <mxCell id="zCF4mZbvVpgICroJBNLq-10" value="Dados do sensor" style="html=1;" parent="zCF4mZbvVpgICroJBNLq-11" vertex="1">
          <mxGeometry x="35" y="90" width="110" height="50" as="geometry" />
        </mxCell>
        <mxCell id="zCF4mZbvVpgICroJBNLq-12" value="SQL database" style="swimlane;dashed=1;fillColor=#007FFF;fontColor=#ffffff;strokeColor=#0066CC;swimlaneFillColor=#CCE5FF;" parent="1" vertex="1">
          <mxGeometry x="300" y="140" width="750" height="460" as="geometry" />
        </mxCell>
        <mxCell id="zCF4mZbvVpgICroJBNLq-22" value="" style="edgeStyle=orthogonalEdgeStyle;rounded=0;orthogonalLoop=1;jettySize=auto;html=1;startArrow=none;startFill=0;entryX=0;entryY=0.75;entryDx=0;entryDy=0;exitX=1;exitY=0.75;exitDx=0;exitDy=0;" parent="zCF4mZbvVpgICroJBNLq-12" source="zCF4mZbvVpgICroJBNLq-15" target="zCF4mZbvVpgICroJBNLq-24" edge="1">
          <mxGeometry relative="1" as="geometry">
            <mxPoint x="375" y="285" as="targetPoint" />
            <Array as="points" />
          </mxGeometry>
        </mxCell>
        <mxCell id="zCF4mZbvVpgICroJBNLq-29" value="" style="edgeStyle=orthogonalEdgeStyle;rounded=0;orthogonalLoop=1;jettySize=auto;html=1;startArrow=none;startFill=0;" parent="zCF4mZbvVpgICroJBNLq-12" source="zCF4mZbvVpgICroJBNLq-15" target="zCF4mZbvVpgICroJBNLq-28" edge="1">
          <mxGeometry relative="1" as="geometry" />
        </mxCell>
        <mxCell id="zCF4mZbvVpgICroJBNLq-32" style="edgeStyle=orthogonalEdgeStyle;rounded=0;orthogonalLoop=1;jettySize=auto;html=1;exitX=1;exitY=1;exitDx=0;exitDy=0;entryX=0.25;entryY=0;entryDx=0;entryDy=0;fontColor=#FFFFFF;startArrow=none;startFill=0;" parent="zCF4mZbvVpgICroJBNLq-12" source="zCF4mZbvVpgICroJBNLq-15" target="zCF4mZbvVpgICroJBNLq-26" edge="1">
          <mxGeometry relative="1" as="geometry">
            <Array as="points">
              <mxPoint x="340" y="302" />
              <mxPoint x="340" y="337" />
              <mxPoint x="437" y="337" />
            </Array>
          </mxGeometry>
        </mxCell>
        <mxCell id="zCF4mZbvVpgICroJBNLq-15" value="Perfil" style="html=1;" parent="zCF4mZbvVpgICroJBNLq-12" vertex="1">
          <mxGeometry x="200" y="252" width="110" height="50" as="geometry" />
        </mxCell>
        <mxCell id="zCF4mZbvVpgICroJBNLq-17" value="contém" style="text;html=1;strokeColor=none;fillColor=none;align=center;verticalAlign=middle;whiteSpace=wrap;rounded=0;rotation=90;" parent="zCF4mZbvVpgICroJBNLq-12" vertex="1">
          <mxGeometry x="234" y="180" width="60" height="30" as="geometry" />
        </mxCell>
        <mxCell id="zCF4mZbvVpgICroJBNLq-16" value="" style="edgeStyle=orthogonalEdgeStyle;rounded=0;orthogonalLoop=1;jettySize=auto;html=1;startArrow=classic;startFill=1;" parent="zCF4mZbvVpgICroJBNLq-12" source="zCF4mZbvVpgICroJBNLq-14" target="zCF4mZbvVpgICroJBNLq-15" edge="1">
          <mxGeometry relative="1" as="geometry" />
        </mxCell>
        <mxCell id="BBZgxPXaabTpRb4WHtMQ-6" value="" style="edgeStyle=orthogonalEdgeStyle;rounded=0;orthogonalLoop=1;jettySize=auto;html=1;" parent="zCF4mZbvVpgICroJBNLq-12" source="zCF4mZbvVpgICroJBNLq-14" target="BBZgxPXaabTpRb4WHtMQ-5" edge="1">
          <mxGeometry relative="1" as="geometry" />
        </mxCell>
        <mxCell id="zCF4mZbvVpgICroJBNLq-14" value="Usuário" style="html=1;" parent="zCF4mZbvVpgICroJBNLq-12" vertex="1">
          <mxGeometry x="200" y="90" width="110" height="50" as="geometry" />
        </mxCell>
        <mxCell id="zCF4mZbvVpgICroJBNLq-23" value="está localizado em" style="text;html=1;strokeColor=none;fillColor=none;align=center;verticalAlign=middle;whiteSpace=wrap;rounded=0;" parent="zCF4mZbvVpgICroJBNLq-12" vertex="1">
          <mxGeometry x="310" y="260" width="100" height="30" as="geometry" />
        </mxCell>
        <mxCell id="zCF4mZbvVpgICroJBNLq-27" value="" style="edgeStyle=orthogonalEdgeStyle;rounded=0;orthogonalLoop=1;jettySize=auto;html=1;startArrow=classic;startFill=1;endArrow=classic;endFill=0;" parent="zCF4mZbvVpgICroJBNLq-12" source="zCF4mZbvVpgICroJBNLq-24" target="zCF4mZbvVpgICroJBNLq-26" edge="1">
          <mxGeometry relative="1" as="geometry" />
        </mxCell>
        <mxCell id="EvElogEbVzrC-FUCAvS2-9" value="" style="edgeStyle=orthogonalEdgeStyle;rounded=0;orthogonalLoop=1;jettySize=auto;html=1;" parent="zCF4mZbvVpgICroJBNLq-12" source="zCF4mZbvVpgICroJBNLq-24" target="EvElogEbVzrC-FUCAvS2-8" edge="1">
          <mxGeometry relative="1" as="geometry" />
        </mxCell>
        <mxCell id="zCF4mZbvVpgICroJBNLq-24" value="País" style="whiteSpace=wrap;html=1;" parent="zCF4mZbvVpgICroJBNLq-12" vertex="1">
          <mxGeometry x="407" y="252" width="120" height="50" as="geometry" />
        </mxCell>
        <mxCell id="zCF4mZbvVpgICroJBNLq-26" value="Cidade" style="whiteSpace=wrap;html=1;" parent="zCF4mZbvVpgICroJBNLq-12" vertex="1">
          <mxGeometry x="407" y="400" width="120" height="50" as="geometry" />
        </mxCell>
        <mxCell id="zCF4mZbvVpgICroJBNLq-28" value="Ocupação" style="whiteSpace=wrap;html=1;" parent="zCF4mZbvVpgICroJBNLq-12" vertex="1">
          <mxGeometry x="200" y="360" width="110" height="50" as="geometry" />
        </mxCell>
        <mxCell id="zCF4mZbvVpgICroJBNLq-30" value="pratica" style="text;html=1;strokeColor=none;fillColor=none;align=center;verticalAlign=middle;whiteSpace=wrap;rounded=0;rotation=90;" parent="zCF4mZbvVpgICroJBNLq-12" vertex="1">
          <mxGeometry x="217" y="315" width="60" height="30" as="geometry" />
        </mxCell>
        <mxCell id="zCF4mZbvVpgICroJBNLq-34" value="&lt;font color=&quot;#000000&quot;&gt;é composto &lt;br&gt;por&lt;/font&gt;" style="text;html=1;strokeColor=none;fillColor=none;align=center;verticalAlign=middle;whiteSpace=wrap;rounded=0;fontColor=#FFFFFF;rotation=90;" parent="zCF4mZbvVpgICroJBNLq-12" vertex="1">
          <mxGeometry x="436" y="340" width="100" height="30" as="geometry" />
        </mxCell>
        <mxCell id="EvElogEbVzrC-FUCAvS2-8" value="Subdivisão do país" style="whiteSpace=wrap;html=1;" parent="zCF4mZbvVpgICroJBNLq-12" vertex="1">
          <mxGeometry x="620" y="252" width="120" height="50" as="geometry" />
        </mxCell>
        <mxCell id="EvElogEbVzrC-FUCAvS2-10" value="&lt;font color=&quot;#000000&quot;&gt;é dividido em&lt;br&gt;&lt;/font&gt;" style="text;html=1;strokeColor=none;fillColor=none;align=center;verticalAlign=middle;whiteSpace=wrap;rounded=0;fontColor=#FFFFFF;" parent="zCF4mZbvVpgICroJBNLq-12" vertex="1">
          <mxGeometry x="522" y="256" width="100" height="30" as="geometry" />
        </mxCell>
        <mxCell id="ueDkMi29vKIodZ3sA7bK-1" value="" style="edgeStyle=orthogonalEdgeStyle;rounded=0;orthogonalLoop=1;jettySize=auto;html=1;" edge="1" parent="zCF4mZbvVpgICroJBNLq-12" source="BBZgxPXaabTpRb4WHtMQ-1" target="zCF4mZbvVpgICroJBNLq-14">
          <mxGeometry relative="1" as="geometry" />
        </mxCell>
        <mxCell id="BBZgxPXaabTpRb4WHtMQ-1" value="Dispositivo" style="html=1;" parent="zCF4mZbvVpgICroJBNLq-12" vertex="1">
          <mxGeometry x="20" y="90" width="110" height="50" as="geometry" />
        </mxCell>
        <mxCell id="BBZgxPXaabTpRb4WHtMQ-3" value="pertence a" style="edgeLabel;html=1;align=center;verticalAlign=middle;resizable=0;points=[];rotation=-90;" parent="zCF4mZbvVpgICroJBNLq-12" vertex="1" connectable="0">
          <mxGeometry x="140" y="115" as="geometry" />
        </mxCell>
        <mxCell id="BBZgxPXaabTpRb4WHtMQ-5" value="Instituição" style="html=1;" parent="zCF4mZbvVpgICroJBNLq-12" vertex="1">
          <mxGeometry x="405" y="90" width="110" height="50" as="geometry" />
        </mxCell>
        <mxCell id="BBZgxPXaabTpRb4WHtMQ-7" value="&lt;font color=&quot;#000000&quot;&gt;faz parte de&lt;br&gt;&lt;/font&gt;" style="text;html=1;strokeColor=none;fillColor=none;align=center;verticalAlign=middle;whiteSpace=wrap;rounded=0;fontColor=#FFFFFF;" parent="zCF4mZbvVpgICroJBNLq-12" vertex="1">
          <mxGeometry x="307" y="94" width="100" height="30" as="geometry" />
        </mxCell>
        <mxCell id="zCF4mZbvVpgICroJBNLq-33" value="está localizado em" style="text;html=1;strokeColor=none;fillColor=none;align=center;verticalAlign=middle;whiteSpace=wrap;rounded=0;" parent="zCF4mZbvVpgICroJBNLq-12" vertex="1">
          <mxGeometry x="336" y="330" width="102" height="30" as="geometry" />
        </mxCell>
        <mxCell id="ueDkMi29vKIodZ3sA7bK-3" value="" style="edgeStyle=orthogonalEdgeStyle;rounded=0;orthogonalLoop=1;jettySize=auto;html=1;exitX=0.5;exitY=1;exitDx=0;exitDy=0;entryX=1;entryY=0.5;entryDx=0;entryDy=0;" edge="1" parent="zCF4mZbvVpgICroJBNLq-12" source="EvElogEbVzrC-FUCAvS2-8" target="zCF4mZbvVpgICroJBNLq-26">
          <mxGeometry relative="1" as="geometry">
            <mxPoint x="633.5" y="360" as="sourcePoint" />
            <mxPoint x="630" y="410" as="targetPoint" />
            <Array as="points">
              <mxPoint x="680" y="425" />
            </Array>
          </mxGeometry>
        </mxCell>
        <mxCell id="ueDkMi29vKIodZ3sA7bK-4" value="&lt;font color=&quot;#000000&quot;&gt;é composto por&lt;/font&gt;" style="text;html=1;strokeColor=none;fillColor=none;align=center;verticalAlign=middle;whiteSpace=wrap;rounded=0;fontColor=#FFFFFF;" vertex="1" parent="zCF4mZbvVpgICroJBNLq-12">
          <mxGeometry x="560" y="400" width="100" height="30" as="geometry" />
        </mxCell>
        <mxCell id="zCF4mZbvVpgICroJBNLq-18" value="" style="edgeStyle=orthogonalEdgeStyle;rounded=0;orthogonalLoop=1;jettySize=auto;html=1;startArrow=classic;startFill=1;entryX=0;entryY=0.5;entryDx=0;entryDy=0;" parent="1" source="zCF4mZbvVpgICroJBNLq-10" target="BBZgxPXaabTpRb4WHtMQ-1" edge="1">
          <mxGeometry relative="1" as="geometry" />
        </mxCell>
        <mxCell id="zCF4mZbvVpgICroJBNLq-19" value="associado a" style="edgeLabel;html=1;align=center;verticalAlign=middle;resizable=0;points=[];rotation=-90;" parent="zCF4mZbvVpgICroJBNLq-18" vertex="1" connectable="0">
          <mxGeometry x="-0.7667" y="-1" relative="1" as="geometry">
            <mxPoint x="27" y="-6" as="offset" />
          </mxGeometry>
        </mxCell>
      </root>
    </mxGraphModel>
  </diagram>
</mxfile>
